<?xml version="1.0" standalone="no"?>
<!DOCTYPE svg PUBLIC "-//W3C//DTD SVG 20010904//EN"
 "http://www.w3.org/TR/2001/REC-SVG-20010904/DTD/svg10.dtd">
<svg version="1.0" xmlns="http://www.w3.org/2000/svg"
 width="1000.000000pt" height="1000.000000pt" viewBox="0 0 1000.000000 1000.000000"
 preserveAspectRatio="xMidYMid meet">
<metadata>
Created by potrace 1.11, written by Peter Selinger 2001-2013
</metadata>
<g transform="translate(0.000000,1000.000000) scale(0.100000,-0.100000)"
fill="#000000" stroke="none">
<path d="M751 9985 c-88 -20 -156 -43 -226 -78 -239 -119 -411 -322 -492 -582
l-28 -90 0 -4235 0 -4235 28 -88 c99 -317 327 -545 642 -644 l90 -28 4235 0
4235 0 90 28 c315 99 543 327 642 644 l28 88 0 4235 0 4235 -28 90 c-99 315
-327 543 -644 642 l-88 28 -4210 2 c-3560 1 -4220 -1 -4274 -12z m7915 -1277
c40 -22 92 -81 101 -116 10 -35 10 -7149 0 -7184 -9 -35 -61 -94 -101 -116
-27 -15 -65 -17 -281 -17 -241 0 -252 1 -292 23 -24 12 -55 41 -70 64 l-28 42
-3 3586 -2 3587 23 43 c26 49 56 75 113 95 61 23 497 17 540 -7z m-4849 1 c15
-5 45 -27 66 -47 30 -30 43 -55 66 -132 126 -412 210 -892 242 -1379 15 -231
7 -732 -15 -931 -44 -396 -123 -748 -248 -1094 -164 -458 -252 -850 -300
-1346 -20 -211 -17 -938 5 -1160 35 -344 106 -779 168 -1022 34 -136 23 -206
-44 -265 -60 -53 -92 -57 -297 -44 -683 44 -1093 191 -1423 510 -237 229 -392
491 -529 891 -210 614 -310 1570 -278 2660 17 608 59 1035 141 1439 133 657
341 1097 666 1412 279 270 628 419 1128 484 239 31 599 44 652 24z m1223 -10
c1044 -83 1610 -549 1910 -1574 118 -404 189 -893 221 -1524 15 -312 7 -1204
-15 -1471 -108 -1334 -418 -2097 -1017 -2496 -311 -208 -698 -312 -1277 -346
-240 -14 -268 -9 -333 49 -44 40 -61 87 -130 348 -205 788 -248 1674 -119
2430 44 258 90 429 210 785 153 456 216 719 265 1105 38 302 48 523 42 885 -9
508 -59 925 -171 1432 -53 238 -51 272 22 341 62 59 80 61 392 36z"/>
</g>
</svg>
